<?xml version="1.0" standalone="no"?>
<!DOCTYPE svg PUBLIC "-//W3C//DTD SVG 20010904//EN"
 "http://www.w3.org/TR/2001/REC-SVG-20010904/DTD/svg10.dtd">
<svg version="1.0" xmlns="http://www.w3.org/2000/svg"
 width="388.000000pt" height="450.000000pt" viewBox="0 0 388.000000 450.000000"
 preserveAspectRatio="xMidYMid meet">

<g transform="translate(0.000000,450.000000) scale(0.100000,-0.100000)"
fill="#000000" stroke="none">
<path d="M1945 3523 c-27 -8 -81 -25 -120 -37 l-70 -22 -27 -129 c-34 -162
-44 -225 -63 -395 -19 -175 -32 -263 -46 -326 l-12 -52 -53 -6 c-70 -8 -141
-35 -208 -80 -101 -67 -132 -131 -84 -176 12 -11 20 -21 17 -22 -2 -2 -13 -8
-24 -14 -11 -6 -30 -26 -43 -45 -26 -39 -56 -58 -90 -59 -13 0 -28 -5 -35 -10
-7 -6 -40 -28 -74 -51 -75 -49 -134 -113 -167 -183 -80 -170 -79 -165 -83
-286 -6 -134 16 -289 45 -329 10 -14 24 -42 32 -61 7 -19 19 -42 25 -50 7 -8
22 -33 34 -55 11 -22 41 -68 66 -103 42 -58 44 -64 31 -85 -8 -12 -19 -40 -25
-63 -8 -30 -19 -44 -43 -57 -207 -107 -451 -341 -596 -573 -18 -28 -32 -56
-32 -62 0 -8 33 -10 117 -6 149 7 427 6 457 -2 19 -4 26 1 40 29 9 19 16 48
16 64 0 15 5 48 11 73 6 25 12 56 14 70 2 14 11 59 19 100 8 41 24 132 37 202
12 71 26 128 31 128 8 0 160 -68 166 -75 4 -3 -73 -302 -89 -345 -23 -65 -59
-225 -53 -242 19 -60 78 49 124 227 5 17 26 91 48 165 22 74 43 147 46 163 4
15 11 27 17 27 7 0 8 -7 4 -17 -4 -10 -10 -29 -12 -43 -3 -14 -18 -90 -35
-170 -43 -202 -48 -228 -55 -287 -5 -50 -4 -53 17 -53 13 0 31 -7 41 -16 30
-27 45 -11 58 68 13 80 23 132 46 252 8 43 15 92 15 110 0 17 3 42 7 54 5 21
11 23 42 20 31 -4 153 -27 300 -57 25 -5 110 -10 190 -11 252 -2 544 59 750
156 41 19 135 76 209 125 74 50 136 88 139 85 3 -2 0 -13 -6 -24 -5 -10 -12
-30 -14 -43 -3 -13 -18 -67 -35 -119 -16 -52 -40 -141 -53 -197 l-23 -103 -55
-38 c-31 -21 -81 -51 -112 -66 -49 -24 -297 -103 -376 -120 -17 -4 -40 -18
-52 -30 l-22 -24 153 -7 c84 -4 205 -3 268 3 63 5 268 10 454 11 187 1 342 4
345 7 5 5 -256 265 -403 402 -81 75 -82 49 11 317 80 236 77 225 65 225 -5 0
-32 -19 -58 -43 -27 -24 -67 -53 -88 -66 -43 -25 -43 -24 19 51 71 86 92 125
114 210 44 175 78 217 223 278 l83 35 34 68 c33 66 34 69 18 102 -34 71 -187
94 -357 52 l-65 -16 -57 62 c-31 34 -55 64 -53 66 2 2 29 -5 59 -14 52 -17 68
-17 169 1 49 8 59 33 40 92 -25 71 -103 147 -200 193 -45 21 -83 44 -83 50 0
6 6 25 14 42 8 18 21 52 29 77 9 25 45 121 81 215 36 93 66 173 66 177 0 4 11
31 24 60 53 116 59 143 43 174 -38 72 -154 180 -281 262 -63 42 -247 132 -290
142 -17 5 -67 18 -111 30 -197 54 -487 75 -590 43z m-669 -1302 c-4 -5 3 -7
14 -4 11 3 20 0 20 -6 0 -6 -11 -11 -25 -11 -16 0 -25 6 -25 15 0 8 5 15 11
15 5 0 8 -4 5 -9z m124 -57 c0 -2 -9 -4 -20 -4 -11 0 -20 4 -20 9 0 5 9 7 20
4 11 -3 20 -7 20 -9z m884 -19 c32 -2 72 -9 87 -16 16 -6 35 -9 44 -6 8 4 31
-1 52 -10 78 -32 89 -36 113 -39 30 -4 157 -69 236 -121 114 -76 124 -83 124
-93 0 -6 -6 -10 -13 -10 -20 0 -44 -22 -52 -47 -5 -19 -2 -23 14 -23 24 0 29
-28 6 -36 -8 -4 -15 -14 -15 -24 0 -10 -8 -21 -17 -23 -14 -4 -13 -5 4 -6 31
-1 40 -21 10 -21 -26 0 -63 -43 -52 -60 11 -18 53 -11 60 10 6 20 20 26 28 13
2 -5 -2 -23 -9 -40 -15 -36 -43 -43 -64 -18 -7 8 -16 12 -22 9 -5 -4 -5 -11 1
-18 6 -7 8 -15 5 -19 -3 -3 3 -3 14 0 23 6 39 -14 23 -30 -8 -8 -14 -8 -23 1
-17 17 -55 15 -62 -3 -3 -10 -19 -15 -42 -15 -21 0 -46 -7 -56 -17 -26 -23
-45 -4 -26 26 11 19 39 27 76 22 14 -2 14 1 6 23 -8 21 -43 21 -51 0 -3 -8
-12 -13 -21 -9 -8 3 -20 -3 -27 -12 -8 -10 -17 -14 -22 -10 -4 5 0 13 10 18
29 17 19 29 -23 29 -22 0 -40 -4 -40 -10 0 -5 5 -10 12 -10 6 0 9 -2 6 -5 -3
-3 -16 -2 -29 3 l-23 9 22 12 c28 15 114 99 137 135 14 20 15 30 7 38 -9 9
-19 6 -39 -13 -32 -29 -146 -89 -168 -89 -8 0 -15 7 -15 15 0 19 -19 19 -44 0
-14 -11 -23 -12 -32 -4 -16 13 -37 2 -30 -16 3 -8 -3 -17 -14 -20 -11 -4 -17
-12 -14 -20 4 -9 -4 -17 -22 -21 -30 -8 -59 6 -59 27 0 8 -6 20 -13 28 -11 11
-21 11 -67 -3 -50 -16 -55 -16 -79 -1 -21 14 -25 22 -19 43 5 21 3 24 -10 19
-9 -3 -19 -2 -23 4 -3 6 -13 8 -22 4 -8 -3 -23 3 -35 16 -19 21 -19 21 0 41
18 17 21 18 26 4 4 -9 2 -16 -3 -16 -19 0 -9 -15 18 -28 23 -11 29 -10 40 5
11 16 10 18 -7 21 -12 2 -21 9 -21 16 0 20 12 27 26 16 6 -6 18 -9 25 -8 7 2
16 -10 20 -27 l7 -30 1 28 c1 29 20 38 22 10 1 -17 2 -17 6 0 2 9 8 17 13 17
5 0 14 9 20 21 9 17 8 23 -7 35 -17 12 -16 13 11 14 23 0 27 3 23 20 -4 15 -1
20 11 18 9 -2 18 4 20 14 2 11 -6 18 -28 23 -27 6 -31 10 -26 30 6 23 4 24
-45 23 -57 0 -87 16 -34 19 38 2 75 19 75 34 0 7 -10 9 -25 5 -19 -5 -25 -2
-25 9 0 9 -7 18 -15 21 -20 8 -19 24 0 24 9 0 36 11 60 24 42 22 43 24 27 39
-9 8 -26 17 -37 20 -11 3 -2 3 20 1 22 -3 67 -7 99 -9z m-274 -19 c0 -27 -12
-46 -29 -46 -9 0 -22 -5 -29 -12 -9 -9 -12 -5 -12 18 0 22 6 34 23 42 31 15
47 14 47 -2z m158 -6 c-15 -23 -28 -26 -28 -7 0 17 10 27 27 27 11 0 11 -4 1
-20z m-598 2 c0 -4 -6 -14 -12 -21 -11 -12 -9 -13 7 -6 11 4 34 10 50 12 27 3
26 2 -13 -18 l-43 -22 -23 22 c-12 12 -26 18 -29 14 -4 -3 -7 1 -7 10 0 13 9
17 35 17 19 0 35 -4 35 -8z m200 -12 c0 -5 -7 -10 -16 -10 -8 0 -12 5 -9 10 3
6 10 10 16 10 5 0 9 -4 9 -10z m-370 -25 c16 -20 10 -26 -18 -18 -12 3 -22 12
-22 19 0 19 24 18 40 -1z m-180 -11 c0 -8 -5 -12 -10 -9 -6 4 -8 11 -5 16 9
14 15 11 15 -7z m505 -3 c-6 -20 17 -51 40 -51 22 0 26 -29 4 -40 -10 -6 -19
-7 -18 -3 5 28 -2 42 -18 36 -11 -4 -14 -3 -9 5 4 7 1 12 -6 12 -8 0 -19 5
-26 12 -9 9 -8 16 6 29 23 24 35 23 27 0z m-586 -17 c-6 -8 -9 -17 -5 -21 3
-3 6 -1 6 6 0 7 5 9 10 6 6 -4 10 -12 9 -18 -1 -7 0 -19 4 -27 3 -8 7 -22 10
-30 2 -8 12 -15 23 -15 12 0 20 -8 22 -21 3 -18 -4 -23 -35 -30 -21 -4 -47 -9
-58 -10 -24 -2 -86 63 -78 82 3 8 0 21 -7 29 -9 11 -2 19 41 44 53 30 81 32
58 5z m641 -4 c0 -5 -4 -10 -10 -10 -5 0 -10 5 -10 10 0 6 5 10 10 10 6 0 10
-4 10 -10z m200 0 c0 -5 -5 -10 -11 -10 -5 0 -7 5 -4 10 3 6 8 10 11 10 2 0 4
-4 4 -10z m-585 -40 c11 -5 15 -9 8 -9 -6 -1 -25 -14 -41 -31 -17 -16 -35 -30
-41 -30 -6 0 -2 9 8 19 12 12 17 27 14 40 -6 23 14 27 52 11z m305 -29 c0 -6
-4 -13 -10 -16 -5 -3 -10 1 -10 9 0 9 5 16 10 16 6 0 10 -4 10 -9z m-710 -30
c0 -11 2 -25 5 -33 3 -7 1 -19 -4 -26 -7 -12 -12 -12 -30 -1 -25 16 -26 27 -5
57 19 27 34 28 34 3z m921 4 c1 -16 -16 -16 -36 0 -19 15 -19 15 8 13 15 -2
28 -7 28 -13z m100 -28 c-12 -12 -45 -1 -37 12 3 5 15 7 27 4 13 -4 17 -9 10
-16z m-302 -13 c-14 -18 -24 -11 -15 11 3 9 11 13 16 10 8 -5 7 -11 -1 -21z
m431 7 c0 -10 -7 -24 -15 -31 -8 -7 -15 -21 -15 -30 0 -29 -11 -50 -26 -50 -8
0 -22 -5 -32 -11 -14 -9 -27 -8 -58 6 -21 10 -41 20 -42 21 -2 1 -1 12 3 23 9
28 33 27 44 -3 15 -37 61 -50 61 -16 0 12 -9 24 -22 29 l-23 8 23 7 c14 5 29
3 39 -6 9 -7 14 -8 10 -2 -4 6 2 19 13 29 11 10 20 24 20 32 0 7 5 13 10 13 6
0 10 -8 10 -19z m-360 -12 c0 -5 -4 -9 -10 -9 -5 0 -10 7 -10 16 0 8 5 12 10
9 6 -3 10 -10 10 -16z m-480 6 c0 -2 -13 -11 -30 -20 -18 -9 -30 -11 -30 -5 0
6 10 15 23 20 26 10 37 12 37 5z m880 -45 c0 -5 -7 -10 -16 -10 -8 0 -12 5 -9
10 3 6 10 10 16 10 5 0 9 -4 9 -10z m-1095 -70 c19 -12 35 -26 35 -32 0 -6 -8
-4 -18 5 -29 26 -47 20 -66 -20 -16 -34 -19 -36 -30 -20 -7 9 -16 14 -19 10
-7 -6 -47 34 -47 46 0 3 14 14 31 24 17 9 33 26 36 37 5 19 6 19 24 -4 11 -14
35 -34 54 -46z m835 55 c-7 -8 -16 -15 -21 -15 -5 0 -9 7 -9 15 0 9 9 15 21
15 18 0 19 -2 9 -15z m-953 -1 c-3 -3 -12 -4 -19 -1 -8 3 -5 6 6 6 11 1 17 -2
13 -5z m985 -48 c12 -17 9 -26 -7 -26 -9 0 -18 7 -21 15 -4 8 -13 15 -21 15
-8 0 -12 4 -9 9 7 11 48 2 58 -13z m188 14 c0 -5 -4 -10 -10 -10 -5 0 -10 5
-10 10 0 6 5 10 10 10 6 0 10 -4 10 -10z m1247 -25 l28 -26 -40 8 c-22 4 -77
7 -122 6 -45 -1 -85 2 -88 7 -11 18 32 29 112 30 74 0 85 -3 110 -25z m-2236
-55 c5 0 9 -9 9 -20 0 -26 -8 -25 -30 3 -14 17 -16 25 -7 36 10 12 12 12 15
-2 2 -10 8 -17 13 -17z m1929 20 c0 -5 -5 -10 -11 -10 -5 0 -7 5 -4 10 3 6 8
10 11 10 2 0 4 -4 4 -10z m-1134 -27 c-6 -6 -36 9 -36 18 0 5 9 4 20 -3 10 -7
18 -14 16 -15z m1114 -13 c0 -5 -4 -10 -10 -10 -5 0 -10 5 -10 10 0 6 5 10 10
10 6 0 10 -4 10 -10z m-1130 -20 c0 -5 -5 -10 -11 -10 -5 0 -7 5 -4 10 3 6 8
10 11 10 2 0 4 -4 4 -10z m1080 -20 c-10 -20 -50 -47 -50 -34 0 7 48 54 56 54
3 0 0 -9 -6 -20z m-2010 -40 c0 -5 -6 -10 -14 -10 -8 0 -18 5 -21 10 -3 6 3
10 14 10 12 0 21 -4 21 -10z m144 -6 c9 -22 -3 -32 -14 -14 -12 19 -12 30 -1
30 5 0 12 -7 15 -16z m1981 -15 c4 -6 5 -12 2 -15 -7 -7 -37 7 -37 17 0 13 27
11 35 -2z m-2103 -111 c6 -50 8 -49 -54 -39 -17 2 -7 33 12 38 26 7 25 19 -2
27 -21 6 -21 7 -5 17 9 5 17 20 17 32 1 21 1 21 14 -3 7 -14 16 -46 18 -72z
m75 70 c-3 -8 -6 -5 -6 6 -1 11 2 17 5 13 3 -3 4 -12 1 -19z m116 -27 c21 -21
60 -54 87 -72 49 -34 67 -59 55 -79 -10 -16 -42 6 -49 35 -4 14 -11 23 -16 20
-17 -10 -70 24 -70 46 0 11 -10 23 -24 28 -21 9 -36 29 -36 52 0 17 15 9 53
-30z m-295 1 c2 -7 -3 -12 -12 -12 -9 0 -16 7 -16 16 0 17 22 14 28 -4z m-8
-52 c8 -5 12 -12 9 -15 -8 -8 -39 5 -39 16 0 11 11 11 30 -1z m238 -11 c17
-27 5 -40 -14 -15 -8 11 -14 23 -14 28 0 15 15 8 28 -13z m1072 -41 c0 -7 9
-24 19 -37 10 -14 17 -31 14 -38 -3 -7 2 -16 11 -19 9 -3 16 -12 16 -19 0 -7
11 -16 25 -19 21 -5 25 -12 25 -42 0 -27 -5 -37 -22 -43 -13 -5 -30 -6 -38 -3
-12 4 -12 2 1 -13 19 -20 59 -13 59 11 0 8 10 14 23 14 13 0 28 5 35 12 9 9
12 7 12 -10 0 -13 -10 -27 -26 -35 -17 -9 -23 -17 -15 -21 18 -11 13 -36 -8
-36 -10 0 -24 -7 -31 -15 -7 -8 -20 -15 -29 -15 -24 0 -45 -38 -30 -56 9 -11
8 -14 -5 -14 -9 0 -16 7 -16 15 0 12 -4 13 -25 3 -24 -11 -35 -38 -16 -38 5 0
8 -16 6 -35 -3 -28 0 -35 15 -35 9 0 23 -7 30 -15 10 -12 8 -18 -11 -34 -20
-16 -21 -21 -10 -35 7 -9 9 -16 3 -16 -5 0 -13 7 -16 16 -3 9 -15 14 -28 12
-28 -4 -36 -28 -9 -28 12 0 21 -6 21 -15 0 -17 55 -21 65 -5 4 6 21 8 42 4 26
-5 34 -4 29 5 -4 6 -20 11 -36 11 -16 0 -32 5 -35 10 -10 16 24 23 42 9 15
-12 16 -11 11 9 -7 27 16 31 31 5 9 -15 12 -16 20 -3 5 8 8 17 5 21 -2 4 3 12
11 19 7 6 11 18 8 26 -3 8 0 14 6 14 6 0 11 -9 11 -20 0 -21 10 -26 25 -11 6
4 22 11 36 14 20 5 30 1 47 -23 30 -40 28 -57 -10 -80 -39 -24 -174 -66 -238
-74 -25 -3 -55 -8 -65 -12 -17 -7 -18 -6 -7 8 10 12 10 18 1 23 -8 6 -8 9 1
15 9 5 0 14 -25 26 -21 10 -40 26 -43 36 -2 11 -14 18 -28 18 -12 0 -26 5 -29
10 -3 6 -10 10 -16 10 -5 0 -9 -4 -9 -10 0 -5 5 -10 12 -10 6 0 23 -13 37 -28
14 -16 35 -34 46 -41 17 -10 15 -11 -20 -9 -22 2 -40 8 -40 15 0 21 -15 26
-32 11 -23 -20 -83 -22 -83 -2 0 9 -11 14 -30 14 -16 0 -30 -3 -30 -8 0 -8 71
-32 95 -32 8 0 12 -6 10 -13 -3 -7 -20 -12 -38 -12 -20 0 -31 -5 -29 -12 1 -7
-7 -13 -18 -13 -11 0 -20 5 -20 10 0 16 -27 12 -34 -5 -6 -17 -52 -14 -48 4 1
6 -5 11 -14 11 -8 0 -12 -4 -9 -10 8 -12 7 -12 -80 1 -38 6 -82 11 -97 10 -28
-1 -39 14 -16 21 15 5 13 68 -4 113 -6 17 -23 45 -37 64 -16 23 -21 36 -13 39
7 2 12 12 12 23 0 11 7 19 16 19 12 0 15 -6 10 -25 -5 -18 -1 -27 15 -35 24
-13 41 -4 19 11 -13 8 -13 10 0 19 19 12 27 12 35 0 12 -19 26 -11 15 9 -13
25 -13 31 0 31 17 0 53 -38 46 -49 -4 -5 -2 -12 3 -16 6 -3 15 4 21 15 13 25
52 35 78 21 25 -13 43 6 21 20 -12 8 -12 11 1 19 8 5 24 10 35 10 17 1 18 2 4
10 -22 13 -13 60 11 60 10 0 21 9 25 19 3 11 19 22 36 26 16 4 28 10 26 13 -2
4 16 26 40 50 24 23 43 38 43 32 0 -5 7 -10 15 -10 18 0 20 16 4 26 -8 4 -7 9
2 15 8 5 19 0 30 -12 23 -27 29 -24 29 16 0 19 -4 35 -10 35 -20 0 -9 20 28
55 40 37 52 42 52 23z m150 -7 c0 -10 -7 -21 -15 -25 -24 -9 -17 -36 15 -54
32 -18 42 -39 13 -27 -10 4 -28 10 -39 12 -12 3 -39 23 -60 44 l-38 39 32 -6
c22 -4 32 -3 32 5 0 7 5 9 10 6 6 -3 13 1 16 9 9 22 34 20 34 -3z m-1156 -38
c22 -25 25 -53 6 -53 -12 0 -50 63 -44 72 8 13 13 10 38 -19z m851 17 c-3 -5
-13 -10 -21 -10 -8 0 -12 5 -9 10 3 6 13 10 21 10 8 0 12 -4 9 -10z m-602 -49
c-8 -35 -7 -35 -42 -16 -28 14 -40 42 -25 57 3 3 21 1 39 -5 31 -9 34 -13 28
-36z m507 8 c-17 -14 -26 -17 -28 -9 -5 14 16 30 38 30 10 -1 7 -7 -10 -21z
m-414 -5 c16 -4 19 -12 16 -35 -7 -48 -72 -37 -72 12 0 30 12 35 56 23z m339
-23 c-16 -16 -65 -25 -65 -12 0 20 5 25 24 28 11 2 22 6 25 8 2 3 9 1 15 -5 6
-6 6 -13 1 -19z m-209 -15 c5 -35 -7 -47 -45 -44 -33 3 -36 6 -39 36 l-3 33
42 -3 c32 -2 43 -7 45 -22z m99 0 c0 -13 -10 -22 -30 -27 -31 -9 -45 1 -45 34
0 15 7 18 38 15 29 -2 37 -7 37 -22z m-802 -6 c6 -25 27 -26 28 -2 0 14 2 14
9 -3 16 -37 12 -58 -10 -52 -15 4 -20 0 -20 -14 0 -10 -4 -19 -10 -19 -23 0
-8 -40 21 -56 23 -11 30 -21 26 -35 -3 -10 -1 -22 4 -25 8 -5 13 10 10 30 -2
9 29 46 38 46 3 -1 17 -10 30 -20 22 -19 22 -21 7 -45 -19 -29 -21 -51 -3 -58
9 -4 8 -8 -3 -16 -8 -6 -19 -11 -25 -11 -5 0 -3 4 5 10 8 5 11 12 7 16 -3 4
-13 2 -20 -5 -12 -9 -22 -2 -51 33 -20 24 -36 47 -36 51 0 3 -9 18 -19 33 -11
15 -22 38 -26 52 -4 17 -3 21 3 11 8 -11 12 -10 21 8 11 19 9 21 -18 21 -33 0
-49 15 -26 24 23 8 18 28 -5 21 -14 -5 -20 -2 -20 9 0 12 10 16 39 16 30 0 40
-4 44 -20z m324 -4 c23 -20 25 -26 14 -40 -12 -14 -15 -14 -37 2 -23 17 -34
62 -15 62 6 0 22 -11 38 -24z m-220 -32 c-3 -3 -12 -4 -19 -1 -8 3 -5 6 6 6
11 1 17 -2 13 -5z m318 -18 c33 -14 46 -38 26 -50 -9 -6 -81 20 -81 28 0 9 12
36 16 36 3 0 20 -7 39 -14z m345 -35 c0 -9 -24 -21 -41 -21 -16 0 -10 18 9 23
28 8 32 7 32 -2z m-696 -22 c-3 -5 -10 -7 -15 -3 -5 3 -7 10 -3 15 3 5 10 7
15 3 5 -3 7 -10 3 -15z m485 7 c9 -10 8 -15 -1 -19 -17 -6 -58 10 -58 23 0 15
46 12 59 -4z m-519 -6 c0 -5 -4 -10 -10 -10 -5 0 -10 5 -10 10 0 6 5 10 10 10
6 0 10 -4 10 -10z m630 0 c0 -5 -13 -10 -30 -10 -16 0 -30 5 -30 10 0 6 14 10
30 10 17 0 30 -4 30 -10z m-390 -84 c0 -9 -30 -14 -35 -6 -4 6 3 10 14 10 12
0 21 -2 21 -4z m-105 -36 c-3 -5 -10 -10 -16 -10 -5 0 -9 5 -9 10 0 6 7 10 16
10 8 0 12 -4 9 -10z m665 0 c0 -5 -9 -10 -21 -10 -11 0 -17 5 -14 10 3 6 13
10 21 10 8 0 14 -4 14 -10z m-280 -50 c0 -5 -4 -10 -9 -10 -6 0 -13 5 -16 10
-3 6 1 10 9 10 9 0 16 -4 16 -10z m-121 -52 c35 -25 60 -64 55 -85 -3 -12 -1
-24 5 -27 6 -4 11 -2 11 5 0 8 4 8 15 -1 8 -7 15 -18 15 -25 0 -7 16 -27 36
-45 20 -17 34 -33 32 -35 -2 -2 -39 6 -83 19 -44 13 -100 27 -124 31 -24 4
-39 10 -33 14 7 4 1 19 -17 40 -16 19 -34 30 -40 27 -19 -12 -12 -35 14 -42
14 -3 22 -10 19 -15 -3 -5 -23 3 -45 18 -31 20 -37 29 -28 39 12 15 7 17 -27
15 -11 -1 -28 7 -39 19 -15 17 -16 20 -3 20 9 0 18 9 21 20 3 12 14 20 26 20
12 0 21 4 21 9 0 26 123 11 169 -21z m-107 -200 c-7 -7 -12 -8 -12 -2 0 14 12
26 19 19 2 -3 -1 -11 -7 -17z m791 -35 c-7 -2 -19 -2 -25 0 -7 3 -2 5 12 5 14
0 19 -2 13 -5z"/>
<path d="M2205 1809 c-4 -6 -5 -13 -2 -16 7 -7 27 6 27 18 0 12 -17 12 -25 -2z"/>
<path d="M2435 1760 c-3 -5 -1 -10 4 -10 6 0 11 5 11 10 0 6 -2 10 -4 10 -3 0
-8 -4 -11 -10z"/>
<path d="M2330 1641 c0 -6 5 -13 10 -16 6 -3 10 1 10 9 0 9 -4 16 -10 16 -5 0
-10 -4 -10 -9z"/>
<path d="M2717 1644 c-9 -9 4 -35 14 -28 5 3 9 12 9 20 0 14 -12 19 -23 8z"/>
<path d="M1065 2000 c-3 -5 -1 -10 4 -10 6 0 11 5 11 10 0 6 -2 10 -4 10 -3 0
-8 -4 -11 -10z"/>
<path d="M2180 1400 c0 -5 5 -10 10 -10 6 0 10 5 10 10 0 6 -4 10 -10 10 -5 0
-10 -4 -10 -10z"/>
<path d="M2231 1298 c-5 -13 -5 -27 0 -32 11 -12 15 -8 23 27 8 33 -11 37 -23
5z"/>
<path d="M2275 1270 c-3 -5 1 -10 10 -10 9 0 13 5 10 10 -3 6 -8 10 -10 10 -2
0 -7 -4 -10 -10z"/>
<path d="M2010 1230 c0 -5 5 -10 11 -10 5 0 7 5 4 10 -3 6 -8 10 -11 10 -2 0
-4 -4 -4 -10z"/>
<path d="M2118 1233 c-10 -2 -18 -8 -18 -13 0 -4 9 -6 20 -3 11 3 20 9 20 14
0 5 -1 8 -2 8 -2 -1 -11 -3 -20 -6z"/>
<path d="M2161 1194 c0 -11 3 -14 6 -6 3 7 2 16 -1 19 -3 4 -6 -2 -5 -13z"/>
<path d="M2230 1190 c0 -5 6 -13 14 -17 7 -4 15 -13 17 -20 3 -8 9 -9 19 -3
12 8 11 12 -7 30 -24 21 -43 26 -43 10z"/>
<path d="M1936 1155 c-3 -8 -1 -15 4 -15 6 0 10 7 10 15 0 8 -2 15 -4 15 -2 0
-6 -7 -10 -15z"/>
<path d="M1985 1110 c-3 -5 -1 -10 4 -10 6 0 11 5 11 10 0 6 -2 10 -4 10 -3 0
-8 -4 -11 -10z"/>
<path d="M2020 1101 c0 -5 5 -13 10 -16 6 -3 10 -2 10 4 0 5 -4 13 -10 16 -5
3 -10 2 -10 -4z"/>
<path d="M2030 1025 c1 -17 29 -49 37 -41 4 3 -3 16 -15 29 -12 12 -22 17 -22
12z"/>
<path d="M2103 982 c-15 -10 3 -52 21 -52 8 0 17 3 19 8 8 11 -29 51 -40 44z"/>
<path d="M2160 944 c0 -8 5 -12 10 -9 6 4 8 11 5 16 -9 14 -15 11 -15 -7z"/>
<path d="M1937 943 c-4 -6 0 -14 9 -17 8 -3 12 -10 9 -16 -3 -5 -1 -10 4 -10
15 0 14 12 -2 35 -9 11 -16 14 -20 8z"/>
<path d="M2000 873 c0 -8 5 -13 12 -11 18 6 21 25 3 25 -8 0 -15 -7 -15 -14z"/>
<path d="M1710 860 c0 -5 5 -10 11 -10 5 0 7 5 4 10 -3 6 -8 10 -11 10 -2 0
-4 -4 -4 -10z"/>
<path d="M1833 843 c9 -9 19 -14 23 -11 10 10 -6 28 -24 28 -15 0 -15 -1 1
-17z"/>
<path d="M1640 810 c0 -5 5 -10 11 -10 5 0 7 5 4 10 -3 6 -8 10 -11 10 -2 0
-4 -4 -4 -10z"/>
<path d="M1915 790 c4 -6 11 -8 16 -5 14 9 11 15 -7 15 -8 0 -12 -5 -9 -10z"/>
<path d="M1065 1150 c-3 -5 1 -10 9 -10 9 0 16 5 16 10 0 6 -4 10 -9 10 -6 0
-13 -4 -16 -10z"/>
<path d="M1042 1108 c3 -7 13 -15 22 -16 12 -3 17 1 14 10 -3 7 -13 15 -22 16
-12 3 -17 -1 -14 -10z"/>
<path d="M1306 995 c-3 -8 -2 -15 3 -15 5 0 14 7 21 15 10 12 10 15 -3 15 -8
0 -17 -7 -21 -15z"/>
<path d="M1367 884 c-10 -11 13 -34 34 -34 11 0 19 6 19 14 0 20 -17 29 -23
14 -4 -10 -7 -10 -14 0 -5 7 -12 9 -16 6z"/>
</g>
</svg>
